<mxfile host="app.diagrams.net" modified="2023-03-21T19:27:41.146Z" agent="5.0 (Windows)" etag="0MsDiy7OvSrgeIphtavv" version="21.0.8" type="github">
  <diagram name="Page-1" id="e3a06f82-3646-2815-327d-82caf3d4e204">
    <mxGraphModel dx="2635.5" dy="1853" grid="1" gridSize="10" guides="1" tooltips="1" connect="1" arrows="1" fold="1" page="1" pageScale="1.5" pageWidth="1169" pageHeight="826" background="none" math="0" shadow="0">
      <root>
        <mxCell id="0" style=";html=1;" />
        <mxCell id="1" style=";html=1;" parent="0" />
        <mxCell id="v_a7rXV7reOXVH5jTACX-1" value="" style="verticalLabelPosition=bottom;sketch=0;aspect=fixed;html=1;verticalAlign=top;strokeColor=none;align=center;outlineConnect=0;shape=mxgraph.citrix.database_server;" parent="1" vertex="1">
          <mxGeometry x="620" y="86" width="80" height="90" as="geometry" />
        </mxCell>
        <mxCell id="v_a7rXV7reOXVH5jTACX-2" value="" style="verticalLabelPosition=bottom;sketch=0;aspect=fixed;html=1;verticalAlign=top;strokeColor=none;align=center;outlineConnect=0;shape=mxgraph.citrix.laptop_2;" parent="1" vertex="1">
          <mxGeometry x="130" y="478.5" width="116" height="86.5" as="geometry" />
        </mxCell>
        <mxCell id="v_a7rXV7reOXVH5jTACX-9" style="edgeStyle=elbowEdgeStyle;rounded=0;orthogonalLoop=1;jettySize=auto;html=1;strokeWidth=6;elbow=vertical;fillColor=#f5f5f5;strokeColor=#666666;startArrow=classic;startFill=1;" parent="1" target="v_a7rXV7reOXVH5jTACX-2" edge="1">
          <mxGeometry relative="1" as="geometry">
            <mxPoint x="417.75" y="380" as="sourcePoint" />
          </mxGeometry>
        </mxCell>
        <mxCell id="v_a7rXV7reOXVH5jTACX-10" style="edgeStyle=elbowEdgeStyle;rounded=0;orthogonalLoop=1;jettySize=auto;elbow=vertical;html=1;strokeWidth=6;fillColor=#f5f5f5;strokeColor=#666666;startArrow=classic;startFill=1;" parent="1" target="v_a7rXV7reOXVH5jTACX-8" edge="1">
          <mxGeometry relative="1" as="geometry">
            <mxPoint x="417.75" y="380" as="sourcePoint" />
          </mxGeometry>
        </mxCell>
        <mxCell id="v_a7rXV7reOXVH5jTACX-14" style="edgeStyle=elbowEdgeStyle;rounded=0;orthogonalLoop=1;jettySize=auto;elbow=vertical;html=1;strokeWidth=6;fillColor=#f5f5f5;strokeColor=#666666;startArrow=classic;startFill=1;" parent="1" target="v_a7rXV7reOXVH5jTACX-12" edge="1">
          <mxGeometry relative="1" as="geometry">
            <mxPoint x="417.75" y="380" as="sourcePoint" />
            <Array as="points">
              <mxPoint x="510" y="428.5" />
            </Array>
          </mxGeometry>
        </mxCell>
        <mxCell id="v_a7rXV7reOXVH5jTACX-4" value="" style="verticalLabelPosition=bottom;sketch=0;aspect=fixed;html=1;verticalAlign=top;strokeColor=none;align=center;outlineConnect=0;shape=mxgraph.citrix.switch;direction=east;" parent="1" vertex="1">
          <mxGeometry x="371.75" y="290" width="92" height="41.5" as="geometry" />
        </mxCell>
        <mxCell id="v_a7rXV7reOXVH5jTACX-6" style="rounded=0;orthogonalLoop=1;jettySize=auto;html=1;elbow=vertical;fillColor=#f5f5f5;strokeColor=#666666;strokeWidth=6;startArrow=classic;startFill=1;" parent="1" source="v_a7rXV7reOXVH5jTACX-5" target="v_a7rXV7reOXVH5jTACX-1" edge="1">
          <mxGeometry relative="1" as="geometry" />
        </mxCell>
        <mxCell id="v_a7rXV7reOXVH5jTACX-7" style="rounded=0;orthogonalLoop=1;jettySize=auto;html=1;elbow=vertical;strokeWidth=6;fillColor=#f5f5f5;strokeColor=#666666;startArrow=classic;startFill=1;exitX=0.5;exitY=1;exitDx=0;exitDy=0;" parent="1" source="v_a7rXV7reOXVH5jTACX-20" target="v_a7rXV7reOXVH5jTACX-4" edge="1">
          <mxGeometry relative="1" as="geometry" />
        </mxCell>
        <mxCell id="v_a7rXV7reOXVH5jTACX-16" style="edgeStyle=elbowEdgeStyle;rounded=0;orthogonalLoop=1;jettySize=auto;elbow=vertical;html=1;strokeWidth=6;startArrow=classic;startFill=1;fillColor=#f5f5f5;strokeColor=#666666;entryX=0.5;entryY=1;entryDx=0;entryDy=0;" parent="1" source="v_a7rXV7reOXVH5jTACX-5" target="v_a7rXV7reOXVH5jTACX-17" edge="1">
          <mxGeometry relative="1" as="geometry" />
        </mxCell>
        <mxCell id="aCXepm_bV8Yw-o5EbkVv-26" style="edgeStyle=orthogonalEdgeStyle;rounded=0;orthogonalLoop=1;jettySize=auto;html=1;strokeWidth=6;strokeColor=#666666;" edge="1" parent="1" source="v_a7rXV7reOXVH5jTACX-5" target="aCXepm_bV8Yw-o5EbkVv-1">
          <mxGeometry relative="1" as="geometry">
            <Array as="points">
              <mxPoint x="200" y="140" />
              <mxPoint x="200" y="286" />
            </Array>
          </mxGeometry>
        </mxCell>
        <mxCell id="v_a7rXV7reOXVH5jTACX-5" value="" style="verticalLabelPosition=bottom;sketch=0;aspect=fixed;html=1;verticalAlign=top;strokeColor=none;align=center;outlineConnect=0;shape=mxgraph.citrix.command_center;" parent="1" vertex="1">
          <mxGeometry x="380" y="80" width="75.5" height="96" as="geometry" />
        </mxCell>
        <mxCell id="v_a7rXV7reOXVH5jTACX-8" value="" style="verticalLabelPosition=bottom;sketch=0;aspect=fixed;html=1;verticalAlign=top;strokeColor=none;align=center;outlineConnect=0;shape=mxgraph.citrix.laptop_2;" parent="1" vertex="1">
          <mxGeometry x="359.75" y="488.5" width="116" height="86.5" as="geometry" />
        </mxCell>
        <mxCell id="v_a7rXV7reOXVH5jTACX-13" value="" style="verticalLabelPosition=bottom;sketch=0;aspect=fixed;html=1;verticalAlign=top;strokeColor=none;align=center;outlineConnect=0;shape=mxgraph.citrix.laptop_2;fillStyle=auto;opacity=10;" parent="1" vertex="1">
          <mxGeometry x="574" y="488.5" width="116" height="86.5" as="geometry" />
        </mxCell>
        <mxCell id="v_a7rXV7reOXVH5jTACX-12" value="" style="verticalLabelPosition=bottom;sketch=0;aspect=fixed;html=1;verticalAlign=top;strokeColor=none;align=center;outlineConnect=0;shape=mxgraph.citrix.laptop_2;fillStyle=auto;opacity=20;" parent="1" vertex="1">
          <mxGeometry x="540" y="488.5" width="116" height="86.5" as="geometry" />
        </mxCell>
        <mxCell id="v_a7rXV7reOXVH5jTACX-11" value="" style="verticalLabelPosition=bottom;sketch=0;aspect=fixed;html=1;verticalAlign=top;strokeColor=none;align=center;outlineConnect=0;shape=mxgraph.citrix.laptop_2;fillStyle=auto;opacity=30;" parent="1" vertex="1">
          <mxGeometry x="510" y="488.5" width="116" height="86.5" as="geometry" />
        </mxCell>
        <mxCell id="v_a7rXV7reOXVH5jTACX-15" value="" style="fontColor=#0066CC;verticalAlign=top;verticalLabelPosition=bottom;labelPosition=center;align=center;html=1;outlineConnect=0;fillColor=#CCCCCC;strokeColor=#6881B3;gradientColor=none;gradientDirection=north;strokeWidth=2;shape=mxgraph.networks.satellite;fillStyle=auto;" parent="1" vertex="1">
          <mxGeometry x="367.75" y="-160" width="100" height="100" as="geometry" />
        </mxCell>
        <mxCell id="v_a7rXV7reOXVH5jTACX-17" value="&lt;font style=&quot;font-size: 13px;&quot;&gt;&lt;font style=&quot;font-size: 14px;&quot;&gt;&lt;font style=&quot;font-size: 15px;&quot;&gt;&lt;font style=&quot;font-size: 16px;&quot;&gt;&lt;font style=&quot;font-size: 17px;&quot;&gt;&lt;font style=&quot;font-size: 18px;&quot;&gt;&lt;font style=&quot;font-size: 19px;&quot;&gt;&lt;font style=&quot;font-size: 20px;&quot;&gt;&lt;font style=&quot;font-size: 21px;&quot;&gt;&lt;font style=&quot;font-size: 22px;&quot;&gt;&lt;font style=&quot;font-size: 23px;&quot;&gt;&lt;font style=&quot;font-size: 24px;&quot;&gt;&lt;font style=&quot;font-size: 25px;&quot;&gt;&lt;font style=&quot;font-size: 26px;&quot;&gt;&lt;font style=&quot;font-size: 27px;&quot;&gt;Starlink&lt;/font&gt;&lt;/font&gt;&lt;/font&gt;&lt;/font&gt;&lt;/font&gt;&lt;/font&gt;&lt;/font&gt;&lt;/font&gt;&lt;/font&gt;&lt;/font&gt;&lt;/font&gt;&lt;/font&gt;&lt;/font&gt;&lt;/font&gt;&lt;/font&gt;" style="text;html=1;fillColor=none;align=center;verticalAlign=middle;whiteSpace=wrap;rounded=0;" parent="1" vertex="1">
          <mxGeometry x="387.75" y="-60" width="60" height="30" as="geometry" />
        </mxCell>
        <mxCell id="v_a7rXV7reOXVH5jTACX-18" value="&lt;font style=&quot;font-size: 13px;&quot;&gt;&lt;font style=&quot;font-size: 14px;&quot;&gt;&lt;font style=&quot;font-size: 15px;&quot;&gt;&lt;font style=&quot;font-size: 16px;&quot;&gt;&lt;font style=&quot;font-size: 17px;&quot;&gt;&lt;font style=&quot;font-size: 18px;&quot;&gt;&lt;font style=&quot;font-size: 19px;&quot;&gt;&lt;font style=&quot;font-size: 20px;&quot;&gt;&lt;font style=&quot;font-size: 21px;&quot;&gt;&lt;font style=&quot;font-size: 22px;&quot;&gt;&lt;font style=&quot;font-size: 23px;&quot;&gt;&lt;font style=&quot;font-size: 24px;&quot;&gt;&lt;font style=&quot;font-size: 25px;&quot;&gt;&lt;font style=&quot;font-size: 26px;&quot;&gt;&lt;font style=&quot;font-size: 27px;&quot;&gt;SWITCH&lt;/font&gt;&lt;/font&gt;&lt;/font&gt;&lt;/font&gt;&lt;/font&gt;&lt;/font&gt;&lt;/font&gt;&lt;/font&gt;&lt;/font&gt;&lt;/font&gt;&lt;/font&gt;&lt;/font&gt;&lt;/font&gt;&lt;/font&gt;&lt;/font&gt;" style="text;html=1;fillColor=none;align=center;verticalAlign=middle;whiteSpace=wrap;rounded=0;" parent="1" vertex="1">
          <mxGeometry x="387.75" y="340" width="60" height="30" as="geometry" />
        </mxCell>
        <mxCell id="v_a7rXV7reOXVH5jTACX-20" value="&lt;div&gt;&lt;font style=&quot;font-size: 13px;&quot;&gt;&lt;font style=&quot;font-size: 14px;&quot;&gt;&lt;font style=&quot;font-size: 15px;&quot;&gt;&lt;font style=&quot;font-size: 16px;&quot;&gt;&lt;font style=&quot;font-size: 17px;&quot;&gt;&lt;font style=&quot;font-size: 18px;&quot;&gt;&lt;font style=&quot;font-size: 19px;&quot;&gt;&lt;font style=&quot;font-size: 20px;&quot;&gt;&lt;font style=&quot;font-size: 21px;&quot;&gt;&lt;font style=&quot;font-size: 22px;&quot;&gt;&lt;font style=&quot;font-size: 23px;&quot;&gt;&lt;font style=&quot;font-size: 24px;&quot;&gt;&lt;font style=&quot;font-size: 25px;&quot;&gt;&lt;font style=&quot;font-size: 26px;&quot;&gt;&lt;font style=&quot;font-size: 27px;&quot;&gt;&lt;font style=&quot;font-size: 28px;&quot;&gt;&lt;font style=&quot;font-size: 27px;&quot;&gt;INTEL NUC&lt;/font&gt;&lt;/font&gt;&lt;/font&gt;&lt;/font&gt;&lt;/font&gt;&lt;/font&gt;&lt;/font&gt;&lt;/font&gt;&lt;/font&gt;&lt;/font&gt;&lt;/font&gt;&lt;/font&gt;&lt;/font&gt;&lt;/font&gt;&lt;/font&gt;&lt;/font&gt;&lt;/font&gt;&lt;/div&gt;&lt;div&gt;&lt;font style=&quot;font-size: 13px;&quot;&gt;&lt;font style=&quot;font-size: 14px;&quot;&gt;&lt;font style=&quot;font-size: 15px;&quot;&gt;&lt;font style=&quot;font-size: 16px;&quot;&gt;&lt;font style=&quot;font-size: 17px;&quot;&gt;&lt;font style=&quot;font-size: 18px;&quot;&gt;&lt;font style=&quot;font-size: 19px;&quot;&gt;&lt;font style=&quot;font-size: 20px;&quot;&gt;&lt;font style=&quot;font-size: 21px;&quot;&gt;&lt;font style=&quot;font-size: 22px;&quot;&gt;&lt;font style=&quot;font-size: 23px;&quot;&gt;&lt;font style=&quot;font-size: 24px;&quot;&gt;&lt;font style=&quot;font-size: 25px;&quot;&gt;&lt;font style=&quot;font-size: 26px;&quot;&gt;&lt;font style=&quot;font-size: 27px;&quot;&gt;&lt;font style=&quot;font-size: 28px;&quot;&gt;&lt;font style=&quot;font-size: 27px;&quot;&gt;Gateway Server&lt;br&gt;&lt;/font&gt;&lt;/font&gt;&lt;/font&gt;&lt;/font&gt;&lt;/font&gt;&lt;/font&gt;&lt;/font&gt;&lt;/font&gt;&lt;/font&gt;&lt;/font&gt;&lt;/font&gt;&lt;/font&gt;&lt;/font&gt;&lt;/font&gt;&lt;/font&gt;&lt;/font&gt;&lt;/font&gt;&lt;/div&gt;" style="text;html=1;fillColor=none;align=center;verticalAlign=middle;whiteSpace=wrap;rounded=0;" parent="1" vertex="1">
          <mxGeometry x="289.13" y="176" width="257.25" height="64" as="geometry" />
        </mxCell>
        <mxCell id="v_a7rXV7reOXVH5jTACX-21" value="&lt;font style=&quot;font-size: 13px;&quot;&gt;&lt;font style=&quot;font-size: 14px;&quot;&gt;&lt;font style=&quot;font-size: 15px;&quot;&gt;&lt;font style=&quot;font-size: 16px;&quot;&gt;&lt;font style=&quot;font-size: 17px;&quot;&gt;&lt;font style=&quot;font-size: 18px;&quot;&gt;&lt;font style=&quot;font-size: 19px;&quot;&gt;&lt;font style=&quot;font-size: 20px;&quot;&gt;&lt;font style=&quot;font-size: 21px;&quot;&gt;&lt;font style=&quot;font-size: 22px;&quot;&gt;&lt;font style=&quot;font-size: 23px;&quot;&gt;&lt;font style=&quot;font-size: 24px;&quot;&gt;&lt;font style=&quot;font-size: 25px;&quot;&gt;&lt;font style=&quot;font-size: 26px;&quot;&gt;&lt;font style=&quot;font-size: 27px;&quot;&gt;QNAP&lt;/font&gt;&lt;/font&gt;&lt;/font&gt;&lt;/font&gt;&lt;/font&gt;&lt;/font&gt;&lt;/font&gt;&lt;/font&gt;&lt;/font&gt;&lt;/font&gt;&lt;/font&gt;&lt;/font&gt;&lt;/font&gt;&lt;/font&gt;&lt;/font&gt;" style="text;html=1;fillColor=none;align=center;verticalAlign=middle;whiteSpace=wrap;rounded=0;" parent="1" vertex="1">
          <mxGeometry x="630" y="176" width="60" height="30" as="geometry" />
        </mxCell>
        <mxCell id="v_a7rXV7reOXVH5jTACX-23" value="" style="endArrow=baseDash;startArrow=baseDash;html=1;rounded=0;strokeWidth=6;fontSize=27;elbow=vertical;startFill=0;endFill=0;" parent="1" edge="1" source="v_a7rXV7reOXVH5jTACX-22">
          <mxGeometry width="50" height="50" relative="1" as="geometry">
            <mxPoint x="380" y="620" as="sourcePoint" />
            <mxPoint x="710" y="620" as="targetPoint" />
            <Array as="points" />
          </mxGeometry>
        </mxCell>
        <mxCell id="aCXepm_bV8Yw-o5EbkVv-1" value="" style="verticalLabelPosition=bottom;sketch=0;aspect=fixed;html=1;verticalAlign=top;strokeColor=none;align=center;outlineConnect=0;shape=mxgraph.citrix.process;" vertex="1" parent="1">
          <mxGeometry x="-69.38999999999999" y="244.75" width="68.77" height="82" as="geometry" />
        </mxCell>
        <mxCell id="aCXepm_bV8Yw-o5EbkVv-22" style="edgeStyle=orthogonalEdgeStyle;rounded=0;orthogonalLoop=1;jettySize=auto;html=1;strokeWidth=6;strokeColor=#666666;" edge="1" parent="1" target="v_a7rXV7reOXVH5jTACX-2">
          <mxGeometry relative="1" as="geometry">
            <mxPoint x="-35" y="400" as="sourcePoint" />
            <Array as="points">
              <mxPoint x="-35" y="522" />
            </Array>
          </mxGeometry>
        </mxCell>
        <mxCell id="aCXepm_bV8Yw-o5EbkVv-2" value="&lt;font style=&quot;font-size: 27px;&quot;&gt;Analysing the hydroacoustic data&lt;/font&gt;" style="text;html=1;fillColor=none;align=center;verticalAlign=middle;whiteSpace=wrap;rounded=0;" vertex="1" parent="1">
          <mxGeometry x="-150" y="346.75" width="230" height="30" as="geometry" />
        </mxCell>
        <mxCell id="aCXepm_bV8Yw-o5EbkVv-18" style="edgeStyle=orthogonalEdgeStyle;rounded=0;orthogonalLoop=1;jettySize=auto;html=1;strokeWidth=6;strokeColor=#666666;" edge="1" parent="1" source="aCXepm_bV8Yw-o5EbkVv-4" target="aCXepm_bV8Yw-o5EbkVv-6">
          <mxGeometry relative="1" as="geometry" />
        </mxCell>
        <mxCell id="aCXepm_bV8Yw-o5EbkVv-19" style="edgeStyle=orthogonalEdgeStyle;rounded=0;orthogonalLoop=1;jettySize=auto;html=1;exitX=0.5;exitY=1;exitDx=0;exitDy=0;strokeWidth=6;strokeColor=#666666;" edge="1" parent="1" source="aCXepm_bV8Yw-o5EbkVv-4" target="aCXepm_bV8Yw-o5EbkVv-20">
          <mxGeometry relative="1" as="geometry">
            <mxPoint x="-220" y="740" as="targetPoint" />
          </mxGeometry>
        </mxCell>
        <mxCell id="aCXepm_bV8Yw-o5EbkVv-4" value="&lt;div style=&quot;font-size: 27px;&quot;&gt;&lt;font style=&quot;font-size: 27px;&quot;&gt;Classification DB&lt;/font&gt;&lt;/div&gt;&lt;div style=&quot;font-size: 27px;&quot;&gt;&lt;font style=&quot;font-size: 27px;&quot;&gt;(AIS, RF, SAR, ...)&lt;/font&gt;&lt;/div&gt;&lt;div style=&quot;font-size: 27px;&quot;&gt;&lt;font style=&quot;font-size: 27px;&quot;&gt;DB Fusion&lt;/font&gt;&lt;br&gt;&lt;/div&gt;" style="text;html=1;align=center;verticalAlign=middle;whiteSpace=wrap;rounded=0;fillColor=#FFFFFF;strokeColor=none;" vertex="1" parent="1">
          <mxGeometry x="63" y="575" width="250" height="105" as="geometry" />
        </mxCell>
        <mxCell id="aCXepm_bV8Yw-o5EbkVv-5" value="" style="endArrow=baseDash;startArrow=baseDash;html=1;rounded=0;strokeWidth=6;fontSize=27;elbow=vertical;startFill=0;endFill=0;" edge="1" parent="1" target="v_a7rXV7reOXVH5jTACX-22">
          <mxGeometry width="50" height="50" relative="1" as="geometry">
            <mxPoint x="380" y="620" as="sourcePoint" />
            <mxPoint x="710" y="620" as="targetPoint" />
            <Array as="points" />
          </mxGeometry>
        </mxCell>
        <mxCell id="v_a7rXV7reOXVH5jTACX-22" value="&lt;font style=&quot;font-size: 13px;&quot;&gt;&lt;font style=&quot;font-size: 14px;&quot;&gt;&lt;font style=&quot;font-size: 15px;&quot;&gt;&lt;font style=&quot;font-size: 16px;&quot;&gt;&lt;font style=&quot;font-size: 17px;&quot;&gt;&lt;font style=&quot;font-size: 18px;&quot;&gt;&lt;font style=&quot;font-size: 19px;&quot;&gt;&lt;font style=&quot;font-size: 20px;&quot;&gt;&lt;font style=&quot;font-size: 21px;&quot;&gt;&lt;font style=&quot;font-size: 22px;&quot;&gt;&lt;font style=&quot;font-size: 23px;&quot;&gt;&lt;font style=&quot;font-size: 24px;&quot;&gt;&lt;font style=&quot;font-size: 25px;&quot;&gt;&lt;font style=&quot;font-size: 26px;&quot;&gt;&lt;font style=&quot;font-size: 27px;&quot;&gt;WORKSTATIONS&lt;/font&gt;&lt;/font&gt;&lt;/font&gt;&lt;/font&gt;&lt;/font&gt;&lt;/font&gt;&lt;/font&gt;&lt;/font&gt;&lt;/font&gt;&lt;/font&gt;&lt;/font&gt;&lt;/font&gt;&lt;/font&gt;&lt;/font&gt;&lt;/font&gt;" style="text;html=1;align=center;verticalAlign=middle;whiteSpace=wrap;rounded=0;fillColor=#FFFFFF;strokeColor=none;" parent="1" vertex="1">
          <mxGeometry x="410" y="605" width="276.25" height="30" as="geometry" />
        </mxCell>
        <mxCell id="aCXepm_bV8Yw-o5EbkVv-12" style="edgeStyle=orthogonalEdgeStyle;rounded=0;orthogonalLoop=1;jettySize=auto;html=1;strokeWidth=6;strokeColor=#666666;" edge="1" parent="1" source="aCXepm_bV8Yw-o5EbkVv-6" target="aCXepm_bV8Yw-o5EbkVv-8">
          <mxGeometry relative="1" as="geometry" />
        </mxCell>
        <mxCell id="aCXepm_bV8Yw-o5EbkVv-6" value="" style="verticalLabelPosition=bottom;sketch=0;aspect=fixed;html=1;verticalAlign=top;strokeColor=none;align=center;outlineConnect=0;shape=mxgraph.citrix.hq_enterprise;" vertex="1" parent="1">
          <mxGeometry x="142" y="750" width="92" height="88" as="geometry" />
        </mxCell>
        <mxCell id="aCXepm_bV8Yw-o5EbkVv-7" value="&lt;div style=&quot;font-size: 27px;&quot;&gt;&lt;font style=&quot;font-size: 27px;&quot;&gt;DEU COE C2-Cell&lt;/font&gt;&lt;/div&gt;&lt;div style=&quot;font-size: 27px;&quot;&gt;&lt;font style=&quot;font-size: 27px;&quot;&gt;SEDAP/MESE-Network&lt;/font&gt;&lt;br&gt;&lt;/div&gt;" style="text;html=1;align=center;verticalAlign=middle;whiteSpace=wrap;rounded=0;fillColor=#FFFFFF;strokeColor=none;" vertex="1" parent="1">
          <mxGeometry x="34.5" y="850" width="307" height="70" as="geometry" />
        </mxCell>
        <mxCell id="aCXepm_bV8Yw-o5EbkVv-13" style="edgeStyle=orthogonalEdgeStyle;rounded=0;orthogonalLoop=1;jettySize=auto;html=1;strokeWidth=6;strokeColor=#666666;" edge="1" parent="1" source="aCXepm_bV8Yw-o5EbkVv-8" target="aCXepm_bV8Yw-o5EbkVv-10">
          <mxGeometry relative="1" as="geometry" />
        </mxCell>
        <mxCell id="aCXepm_bV8Yw-o5EbkVv-8" value="" style="verticalLabelPosition=bottom;sketch=0;aspect=fixed;html=1;verticalAlign=top;strokeColor=none;align=center;outlineConnect=0;shape=mxgraph.citrix.hq_enterprise;" vertex="1" parent="1">
          <mxGeometry x="517.5" y="750" width="92" height="88" as="geometry" />
        </mxCell>
        <mxCell id="aCXepm_bV8Yw-o5EbkVv-9" value="&lt;div style=&quot;font-size: 27px;&quot;&gt;&lt;font style=&quot;font-size: 27px;&quot;&gt;DEU NAVY C2-Cell&lt;/font&gt;&lt;/div&gt;&lt;div style=&quot;font-size: 27px;&quot;&gt;&lt;font style=&quot;font-size: 27px;&quot;&gt;SEDAP/MESE-Network&lt;/font&gt;&lt;br&gt;&lt;/div&gt;" style="text;html=1;align=center;verticalAlign=middle;whiteSpace=wrap;rounded=0;fillColor=#FFFFFF;strokeColor=none;" vertex="1" parent="1">
          <mxGeometry x="410" y="850" width="307" height="70" as="geometry" />
        </mxCell>
        <mxCell id="aCXepm_bV8Yw-o5EbkVv-10" value="" style="verticalLabelPosition=bottom;sketch=0;aspect=fixed;html=1;verticalAlign=top;strokeColor=none;align=center;outlineConnect=0;shape=mxgraph.citrix.hq_enterprise;" vertex="1" parent="1">
          <mxGeometry x="867.5" y="750" width="92" height="88" as="geometry" />
        </mxCell>
        <mxCell id="aCXepm_bV8Yw-o5EbkVv-11" value="&lt;font style=&quot;font-size: 27px;&quot;&gt;PRT C2 System&lt;/font&gt;" style="text;html=1;align=center;verticalAlign=middle;whiteSpace=wrap;rounded=0;fillColor=#FFFFFF;strokeColor=none;" vertex="1" parent="1">
          <mxGeometry x="760" y="850" width="307" height="70" as="geometry" />
        </mxCell>
        <mxCell id="aCXepm_bV8Yw-o5EbkVv-14" value="&lt;font style=&quot;font-size: 27px;&quot;&gt;SEDAP - LINK&lt;/font&gt;" style="text;html=1;align=center;verticalAlign=middle;whiteSpace=wrap;rounded=0;fillColor=#FFFFFF;strokeColor=none;" vertex="1" parent="1">
          <mxGeometry x="233.75" y="750" width="276.25" height="30" as="geometry" />
        </mxCell>
        <mxCell id="aCXepm_bV8Yw-o5EbkVv-15" value="&lt;font style=&quot;font-size: 27px;&quot;&gt;CUTLE&lt;/font&gt;" style="text;html=1;align=center;verticalAlign=middle;whiteSpace=wrap;rounded=0;fillColor=#FFFFFF;strokeColor=none;" vertex="1" parent="1">
          <mxGeometry x="620" y="750" width="236.75" height="30" as="geometry" />
        </mxCell>
        <mxCell id="aCXepm_bV8Yw-o5EbkVv-16" value="" style="verticalLabelPosition=bottom;sketch=0;aspect=fixed;html=1;verticalAlign=top;strokeColor=none;align=center;outlineConnect=0;shape=mxgraph.citrix.middleware;" vertex="1" parent="1">
          <mxGeometry x="656" y="755" width="33.53" height="20" as="geometry" />
        </mxCell>
        <mxCell id="aCXepm_bV8Yw-o5EbkVv-17" value="" style="verticalLabelPosition=bottom;sketch=0;aspect=fixed;html=1;verticalAlign=top;strokeColor=none;align=center;outlineConnect=0;shape=mxgraph.citrix.middleware;" vertex="1" parent="1">
          <mxGeometry x="246" y="755" width="33.53" height="20" as="geometry" />
        </mxCell>
        <mxCell id="aCXepm_bV8Yw-o5EbkVv-20" value="" style="verticalLabelPosition=bottom;sketch=0;aspect=fixed;html=1;verticalAlign=top;strokeColor=none;align=center;outlineConnect=0;shape=mxgraph.citrix.reporting;" vertex="1" parent="1">
          <mxGeometry x="-270" y="744" width="89.13" height="100" as="geometry" />
        </mxCell>
        <mxCell id="aCXepm_bV8Yw-o5EbkVv-21" value="&lt;div style=&quot;font-size: 27px;&quot;&gt;Dashboard&lt;/div&gt;&lt;div style=&quot;font-size: 27px;&quot;&gt;SubSurface Group&lt;/div&gt;" style="text;html=1;align=center;verticalAlign=middle;whiteSpace=wrap;rounded=0;fillColor=#FFFFFF;strokeColor=none;" vertex="1" parent="1">
          <mxGeometry x="-378.93" y="850" width="307" height="70" as="geometry" />
        </mxCell>
        <mxCell id="aCXepm_bV8Yw-o5EbkVv-25" style="edgeStyle=orthogonalEdgeStyle;rounded=0;orthogonalLoop=1;jettySize=auto;html=1;strokeWidth=6;strokeColor=#666666;" edge="1" parent="1" source="aCXepm_bV8Yw-o5EbkVv-23" target="v_a7rXV7reOXVH5jTACX-5">
          <mxGeometry relative="1" as="geometry">
            <Array as="points">
              <mxPoint x="200" y="6" />
              <mxPoint x="200" y="110" />
            </Array>
          </mxGeometry>
        </mxCell>
        <mxCell id="aCXepm_bV8Yw-o5EbkVv-23" value="" style="verticalLabelPosition=bottom;sketch=0;aspect=fixed;html=1;verticalAlign=top;strokeColor=none;align=center;outlineConnect=0;shape=mxgraph.citrix.document;" vertex="1" parent="1">
          <mxGeometry x="-58.5" y="-30" width="47" height="72" as="geometry" />
        </mxCell>
        <mxCell id="aCXepm_bV8Yw-o5EbkVv-24" value="&lt;font style=&quot;font-size: 27px;&quot;&gt;Hydroacoustic Data and Trackdata&lt;/font&gt;" style="text;html=1;fillColor=none;align=center;verticalAlign=middle;whiteSpace=wrap;rounded=0;" vertex="1" parent="1">
          <mxGeometry x="-170" y="42" width="270" height="70" as="geometry" />
        </mxCell>
      </root>
    </mxGraphModel>
  </diagram>
</mxfile>
